<?xml version="1.0" encoding="utf-8"?>
<!-- Generator: Adobe Illustrator 16.0.0, SVG Export Plug-In . SVG Version: 6.00 Build 0)  -->
<!DOCTYPE svg PUBLIC "-//W3C//DTD SVG 1.1//EN" "http://www.w3.org/Graphics/SVG/1.1/DTD/svg11.dtd">
<svg version="1.1" id="圖層_1" xmlns="http://www.w3.org/2000/svg" xmlns:xlink="http://www.w3.org/1999/xlink" x="0px" y="0px"
	 width="243.771px" height="841.891px" viewBox="0 0 243.771 841.891" enable-background="new 0 0 243.771 841.891"
	 xml:space="preserve">
<g transform="translate(44.469 153.576)">
	<g transform="translate(-44.468 -153.576)">
		<path fill="#1393A0" d="M225.629,56.535c4.144-4.44,4.538-4.539,5.328-4.539c0.984,0,1.479,0.099,5.819,3.75
			c4.046,3.355,4.44,3.944,4.44,4.934c0,0.99-0.396,1.48-3.157,3.355c-2.072,13.318-4.438,21.015-7.398,24.271
			c-3.244,3.189-7.695,4.839-12.233,4.537c-2.565,0-3.157-0.395-3.65-2.368c-1.097-4.339-2.664-6.217-9.866-8.582
			c-0.594-0.197-0.594-1.097,0-1.097c5.327,0.099,7.599,0,10.559-0.197c2.604,0.201,5.094-1.102,6.414-3.355
			c2.571-5.938,4.074-12.284,4.438-18.745h-45.481c-11.147,11.739-21.509,18.943-31.077,22.202
			c-0.592,0.197-0.889-0.691-0.395-0.984c6.304-3.355,17.657-13.705,25.061-25.949c5.351-8.64,9.749-17.835,13.118-27.423H173.44
			c-3.892-0.031-7.781,0.199-11.644,0.691l-0.983-3.353c4.192,0.473,8.408,0.703,12.627,0.691h14.803
			c1.097-3.563,2.172-7.203,3.06-11.051c1.182-4.362,1.973-8.82,2.365-13.321c14.802,4.539,16.38,5.92,16.38,7.4
			c0,1.371-0.986,2.467-4.639,3.155c-1.274,4.679-2.791,9.29-4.538,13.814h6.217c4.243-4.44,4.934-4.739,5.624-4.739
			c0.889,0,1.371,0.197,5.428,3.157c3.562,2.566,3.749,2.96,3.749,3.75c0,0.789-0.296,1.096-3.157,3.155
			c-0.984,3.059-2.368,7.302-3.75,11.147h1.48c4.342-4.438,4.734-4.635,5.523-4.635c0.891,0,1.68,0.395,5.326,3.256
			c3.354,2.665,3.75,3.059,3.75,3.837c0,0.984-0.396,1.371-2.862,2.958c-0.888,3.256-1.973,6.611-3.059,10.262L225.629,56.535z
			 M176.292,65.032c3.171,3.316,4.907,7.747,4.835,12.334c0,3.651-2.468,8.878-7.795,8.878c-3.158,0.362-6.014-1.905-6.374-5.063
			c-0.02-0.158-0.029-0.317-0.034-0.476c0.004-2.115,1.08-4.083,2.856-5.227c3.501-2.205,5.653-6.027,5.726-10.163
			c0-0.592,0.397-0.79,0.795-0.293L176.292,65.032z M170.261,3.359c10.263,0.493,16.279,5.625,16.279,11.345
			c0.317,4.031-2.689,7.558-6.722,7.877c-0.097,0.008-0.191,0.013-0.289,0.017c-2.94,0.172-5.467-2.075-5.639-5.017
			c-0.016-0.269-0.011-0.538,0.014-0.805c0-6.411-0.787-10.358-4.045-12.529c-0.475-0.302-0.176-0.891,0.416-0.891L170.261,3.359z
			 M192.361,42.83c-2.786,4.861-6.021,9.449-9.667,13.705h30.276c1.579-5.329,2.96-9.868,3.837-13.705H192.361z M195.539,76.473
			c0,3.33-2.699,6.03-6.03,6.03c-2.48,0.104-4.575-1.823-4.68-4.303c-0.013-0.277,0.003-0.554,0.042-0.828
			c0.593-6.304,0.195-10.065-1.37-12.729c-0.296-0.493-0.101-0.885,0.493-0.69C192.381,66.3,195.539,72.123,195.539,76.473z
			 M200.176,26.342c-1.966,4.953-4.206,9.793-6.71,14.497h9.571c1.875-5.918,3.454-10.657,4.438-14.502L200.176,26.342z
			 M203.134,79.213c-2.299,0.213-4.335-1.478-4.549-3.776c-0.026-0.286-0.023-0.574,0.01-0.859
			c0.099-4.342-0.099-8.497-2.961-11.348c-0.396-0.395-0.197-0.789,0.396-0.69c8.682,1.371,12.824,5.822,12.824,11.147
			C208.731,76.763,206.211,79.197,203.134,79.213z M207.969,61.85c-0.494-0.293-0.296-0.888,0.296-0.789
			c8.286,0.789,13.516,3.837,13.516,9.867c-0.075,2.872-2.357,5.197-5.229,5.328c-2.409,0.25-4.564-1.501-4.813-3.911
			c-0.012-0.11-0.019-0.221-0.021-0.332c-0.293-4.331-0.786-8.275-3.744-10.142L207.969,61.85z"/>
		<path fill="#1393A0" d="M165.347,154.916c-4.75,5.414-10.151,10.22-16.081,14.308c-0.493,0.296-1.185-0.395-0.79-0.789
			c7.104-7.993,15.295-24.074,21.706-42.819c0.787-2.322,1.413-4.696,1.875-7.104c14.206,5.723,15.489,6.611,15.489,8.091
			s-0.79,2.072-4.44,3.056c-2.845,5.583-6.179,10.903-9.964,15.897c6.217,2.267,7.302,3.056,7.302,4.243
			c0,0.885-0.592,1.576-3.059,2.565v22.101c0,23.777,0.197,29.893,0.197,32.359c0,2.763-3.061,4.243-8.771,4.243
			c-3.761-0.014-4.354-0.803-4.354-3.369c0-2.566,0.395-9.275,0.592-22.988L165.347,154.916z M224.346,155.902
			c7.006-9.374,7.4-9.667,8.388-9.667c1.098,0,1.479,0.195,7.2,5.819c3.65,3.651,3.837,4.048,3.837,4.739s-0.493,1.097-1.282,1.097
			h-25.936c0,29.501,0.494,46.47,0.494,49.036c0,2.861-2.467,4.146-8.686,4.146c-4.339,0-5.324-0.396-5.324-3.563
			c0-2.664,0.689-18.943,0.689-49.611h-11.544c-2.27,0-6.513,0.197-11.148,0.691l-0.987-3.355c4.835,0.493,9.273,0.69,12.138,0.69
			h11.542c0-29.106-0.099-32.162-0.592-37.493c15.896,1.37,17.07,2.368,17.07,3.75c0,1.096-0.987,1.776-3.651,3.256v30.468h7.793
			L224.346,155.902L224.346,155.902z"/>
		<path fill="#1393A0" d="M189.717,263.954c0,12.729,0.296,20.519,0.296,21.804c0,2.366-1.974,3.454-5.921,3.454
			c-2.861,0-3.354-0.496-3.354-2.96c0-0.79,0.197-6.611,0.296-15.689c-0.556,0.473-1.188,0.844-1.875,1.097
			c-1.281,9.667-5.131,15.39-12.628,19.137c-0.53,6.958-2.062,13.803-4.537,20.327c-2.646,7.028-6.983,13.296-12.629,18.25
			c-0.253,0.182-0.604,0.125-0.786-0.128c-0.145-0.196-0.145-0.461-0.003-0.659c3.233-4.74,5.268-10.197,5.922-15.897
			c1.479-8.497,1.875-18.055,1.875-37.59c0-15.489-0.297-22.1-0.987-29.991c11.049,2.763,13.705,3.563,14.207,4.635h21.104v-2.467
			c0.092-3.562-0.105-7.125-0.593-10.654c15.591,0.984,17.466,2.072,17.466,3.563c0,1.184-0.491,1.675-4.046,3.256v6.304h19.239
			c7.104-8.286,7.4-8.585,8.387-8.585c0.987,0,1.48,0.197,6.707,5.131c3.355,3.155,3.563,3.563,3.563,4.44
			c0,0.592-0.296,0.984-1.099,0.984h-71.227c-0.562,0.484-1.195,0.883-1.874,1.184v20.129c0,6.51-0.197,11.838-0.593,16.476
			c3.158-3.837,4.539-10.657,4.539-18.943c0.021-1.282-0.045-2.564-0.197-3.837c3.428,0.205,6.812,0.868,10.062,1.974v-4.745h-1.48
			c-3.335-0.038-6.668,0.192-9.966,0.69l-0.89-3.354c3.604,0.425,7.226,0.655,10.853,0.69h1.479
			c0.071-2.802-0.062-5.605-0.401-8.387c9.767,0.79,11.236,1.286,11.236,2.368c0,0.888-0.491,1.283-2.171,2.171v3.837h2.368
			c4.243-5.528,4.539-5.92,5.328-5.92c0.79,0,0.987,0.099,4.146,2.96c1.774,1.675,2.664,2.467,3.06,2.96h7.598
			c0.074-2.803-0.058-5.607-0.395-8.39c10.062,0.79,11.542,1.286,11.542,2.368c0,0.888-0.493,1.283-2.171,2.171v3.837h5.723
			c4.636-5.822,4.937-6.219,5.822-6.219c0.789,0,1.37,0.296,4.835,3.454c2.96,2.667,3.256,3.157,3.256,3.837
			c0,0.592-0.296,0.888-1.282,0.888h-18.328c0,12.924,0.296,20.719,0.296,21.999c0,2.368-1.974,3.454-6.216,3.454
			c-2.86,0-3.354-0.493-3.354-2.958c0-0.79,0.195-6.512,0.296-15.39c-0.374,0.235-0.771,0.434-1.186,0.592
			c-0.838,7.151-5.06,13.464-11.348,16.969c5.92,1.576,6.71,2.168,6.71,3.155c0,1.283-1.097,1.875-4.934,2.467
			c-3.158,2.168-6.03,4.243-9.078,6.305c2.201,1.483,3.533,3.954,3.562,6.608c-0.059,3.758-3.146,6.76-6.904,6.709
			c-2.328,0.265-4.503-1.2-5.134-3.456c-1.217-5.213-4.844-9.536-9.766-11.641c-0.592-0.197-0.395-0.888,0.197-0.987
			c4.472-0.7,9.038-0.498,13.431,0.595c0.986-2.763,1.875-5.329,2.763-8.497c0.309-1.135,0.538-2.289,0.69-3.454
			c2.665,0.69,4.935,1.184,6.71,1.675c3.06-3.253,5.23-9.667,5.23-17.562c0.02-1.282-0.048-2.564-0.197-3.837
			c3.135,0.281,6.239,0.842,9.273,1.675v-4.383L189.717,263.954L189.717,263.954z M238.752,321.769
			c0.071,4.014-3.121,7.327-7.135,7.4c-0.091,0.002-0.179,0.002-0.268,0c-2.939,0.057-5.452-2.113-5.822-5.032
			c-0.38-1.795-0.94-3.548-1.677-5.229c-16.575,3.059-27.33,4.837-50.812,8.584c-0.986,1.875-1.37,2.27-2.271,2.27
			c-1.282,0-1.874-0.79-6.029-14.801c3.157,0.197,4.44,0.296,7.893,0.395c8.388,0.197,15.896,0.397,23.298,0.397
			c4.225-5.867,8.017-12.033,11.348-18.449c0.937-1.721,1.761-3.5,2.469-5.326c14.306,5.128,14.994,5.625,14.994,7.203
			c0,1.283-1.28,1.773-5.131,2.168c-6.905,5.329-12.135,9.276-19.437,14.407c7.104,0,14.207-0.099,22.002-0.197
			c-1.664-2.905-4.131-5.269-7.104-6.806c-0.256-0.139-0.35-0.458-0.211-0.714c0.102-0.184,0.3-0.291,0.508-0.273
			C232.432,307.855,238.752,315.166,238.752,321.769L238.752,321.769z M199.683,281.317c0,2.171-1.678,2.763-5.131,2.763
			c-1.974,0-2.665-0.79-2.665-2.368c0-1.478,0.198-4.145,0.198-8.089c0-2.861,0-4.736-0.101-6.512
			c8.584,0.987,9.571,1.371,9.571,2.368c0,0.69-0.296,0.984-1.875,1.773L199.683,281.317L199.683,281.317z M231.355,277.271
			c0,1.37,0.197,1.675,2.171,1.675c1.976,0,2.664-0.195,3.562-1.773c1.354-2.457,2.477-5.033,3.354-7.697
			c0.197-0.592,0.789-0.397,0.69,0.197c-0.296,3.155-0.396,5.424-0.396,6.608c-0.047,0.978,0.357,1.923,1.099,2.566
			c0.988,0.87,1.533,2.14,1.479,3.456c0,2.267-2.27,4.243-10.654,4.243c-7.697,0-9.078-1.48-9.078-3.563
			c0-1.677,0.195-4.638,0.195-8.683c0-2.665,0-4.835-0.195-7.204c8.288,0.691,10.163,1.187,10.163,2.171
			c0,0.79-0.298,1.185-2.368,2.171L231.355,277.271z"/>
		<path fill="#1393A0" d="M187.15,450.829v-98.675h3.158v98.675H187.15L187.15,450.829z"/>
		<path fill="#1393A0" d="M187.15,549.503v-98.674h3.158v98.674H187.15L187.15,549.503z"/>
		<path fill="#1393A0" d="M51.77,104.784c6.907,4.045,8.286,5.032,8.286,6.115c0,1.371-0.592,1.773-4.539,1.875
			c-7.185,3.976-15.109,6.428-23.283,7.203c1.1,0.933,2.373,1.637,3.748,2.072c3.355,1.184,9.475,1.48,19.438,1.48
			c13.718-0.047,27.421-0.87,41.044-2.467c0.592-0.099,0.788,0.691,0.296,1.097c-3.095,2.108-5.196,5.386-5.821,9.078
			c-0.296,2.27-0.986,3.355-3.061,3.454c-2.564,0.296-7.006,0.494-21.704,0.494c-22.495,0-27.33-1.283-32.362-5.424
			c-3.582-2.996-6.078-7.086-7.104-11.641c-4.199,5.046-8.817,9.728-13.808,13.996c-1.097,2.664-1.775,3.454-2.86,3.454
			c-1.186,0-2.664-1.579-8.189-13.519c2.007-0.474,3.983-1.066,5.921-1.773c2.965-1.077,5.862-2.329,8.679-3.75V88.703h-4.336
			c-2.938-0.056-5.877,0.175-8.771,0.691l-0.897-3.355c3.196,0.495,6.431,0.726,9.667,0.691h3.156
			c4.935-5.819,5.329-6.411,6.306-6.411c1.097,0,1.479,0.194,4.835,3.155c4.439,3.837,4.835,4.342,4.835,5.625
			c0,0.789-0.493,1.283-3.157,3.454v23.298c0.898,1.283,1.96,2.444,3.157,3.454c6.349-2.885,11.854-7.344,15.993-12.954
			c0.296-0.494,0.593-0.984,0.986-1.576h-5.229c-2.96,0-5.328,0.195-11.051,0.691l-0.89-3.355c3.964,0.445,7.947,0.675,11.938,0.691
			h1.774v-9.558h-0.493c-3.334-0.038-6.666,0.193-9.963,0.691l-0.89-3.355c3.604,0.425,7.226,0.655,10.853,0.691h0.493
			c0-4.243-0.1-6.414-0.396-10.559c11.542,0.888,12.924,1.48,12.924,2.862c0,0.888-0.396,1.48-2.467,2.763v4.934h8.979
			c0-4.243-0.1-6.414-0.396-10.559c11.542,0.79,12.923,1.48,12.923,2.862c0,0.888-0.396,1.48-2.271,2.763v4.934h2.469
			c5.229-6.611,5.427-6.708,6.116-6.708c0.79,0,0.987,0.096,4.343,3.563c2.764,2.763,3.354,3.355,3.354,4.045
			c0.074,0.526-0.292,1.013-0.817,1.088c-0.057,0.008-0.112,0.011-0.169,0.009H74.063v9.547h4.737
			c5.424-6.809,5.624-7.006,6.413-7.006c0.889,0,1.37,0.194,5.132,3.837c3.157,3.059,3.354,3.256,3.354,4.145
			c0,0.592-0.296,0.987-1.098,0.987L51.77,104.784z M9.938,48.055c12.434,1.37,18.253,7.2,18.253,13.516
			c0.367,3.724-2.353,7.041-6.076,7.41c-0.474,0.046-0.948,0.043-1.421-0.009c-3.946,0-5.525-2.568-5.821-7.4
			c-0.009-4.807-2.096-9.375-5.725-12.529C8.655,48.646,9.346,47.966,9.938,48.055z M42.21,52.899
			c-3.562-0.005-7.12,0.225-10.652,0.691l-0.986-3.355c3.863,0.46,7.752,0.691,11.645,0.69h4.242
			c3.354-3.837,3.651-4.048,4.343-4.048c0.888,0,1.281,0.099,4.638,2.862c2.564,2.171,2.764,2.568,2.764,3.562
			c0,0.79-0.396,1.097-2.271,2.665v1.866c0,1.371,0.296,4.145,0.296,5.625c0,1.974-1.479,3.355-5.624,3.355
			c-2.86,0-3.943-1.096-3.943-2.763v-2.072h-4.357c-0.413,0.332-0.876,0.598-1.37,0.79v6.216c0,2.171,0.593,2.96,5.328,2.96
			c5.328,0,6.61-0.888,9.078-3.947c1.522-1.895,2.783-3.985,3.75-6.216c0.196-0.396,0.888-0.197,0.788,0.395
			c-0.468,2.015-0.797,4.059-0.985,6.118c-0.04,0.882,0.129,1.761,0.493,2.566c0.777,0.988,1.229,2.196,1.281,3.454
			c0,3.256-2.564,5.723-14.308,5.723c-11.839,0-13.517-1.773-13.517-6.217c0-2.072,0.1-4.736,0.1-7.497c0-1.877,0-5.229-0.197-9.769
			c7.104,1.877,9.177,2.861,9.867,3.457h4.046v-7.111H42.21z M54.818,102.812h8.979v-9.572h-8.979V102.812z M73.279,52.899
			c-3.562-0.005-7.124,0.225-10.657,0.691l-0.985-3.355c3.863,0.46,7.752,0.691,11.645,0.69h3.649
			c3.65-4.147,3.946-4.243,4.639-4.243c1.097,0,1.479,0.096,4.735,2.958c2.765,2.368,2.961,2.763,2.961,3.651
			c0,0.79-0.196,1.096-2.271,2.664v1.877c0,1.371,0.296,4.145,0.296,5.625c0,1.974-2.071,3.355-6.217,3.355
			c-2.764,0-3.749-1.096-3.749-2.763v-2.072h-4.439c-0.414,0.332-0.876,0.598-1.371,0.79v6.03c0,2.171,0.592,2.96,4.835,2.96
			c6.414,0,8.286-0.888,10.753-3.947c1.474-1.787,2.729-3.74,3.75-5.819c0.296-0.496,0.889-0.197,0.789,0.395
			c-0.529,2.001-0.859,4.049-0.985,6.115c-0.047,0.946,0.122,1.891,0.492,2.763c0.778,0.989,1.229,2.197,1.282,3.454
			c0,3.256-2.564,5.326-15.981,5.326c-11.742,0-13.432-1.773-13.432-6.216c0-2.072,0.1-4.736,0.1-7.497c0-1.877,0-5.229-0.196-9.769
			c7.399,1.877,9.57,2.861,10.163,3.456h4.242v-7.119H73.279z M86.887,116.131c0.074,2.699-2.055,4.948-4.753,5.022
			c-0.124,0.003-0.248,0.002-0.372-0.004c-2.071,0-3.562-0.691-5.722-3.648c-3.229-4.423-7.641-7.843-12.729-9.867
			c-0.592-0.197-0.296-1.097,0.298-1.097C82.256,106.267,86.887,112.085,86.887,116.131z"/>
		<path fill="#1393A0" d="M25.822,206.221c3.837-0.987,7.399-2.072,11.645-3.355c0.271-0.136,0.604-0.026,0.737,0.246
			c0.138,0.271,0.025,0.602-0.245,0.739c-4.242,3.157-8.388,6.304-12.134,9.177c0.1,23.572,0.493,28.119,0.493,31.277
			c0.278,3.838-1.58,7.517-4.835,9.569c-1.991,1.322-4.32,2.041-6.711,2.072c-1.578,0-2.271-0.592-2.763-2.565
			c-0.89-3.357-2.764-6.216-8.878-8.286c-0.594-0.197-0.594-0.987,0-0.987c3.749-0.198,5.92-0.397,8.681-0.79
			c2.271-0.296,3.157-1.677,3.157-4.934v-18.743l-4.343,3.056c-0.788,2.27-1.281,2.763-2.271,2.763
			c-1.184,0-1.578-0.194-6.413-14.009c2.664-0.395,5.328-0.885,8.771-1.675l4.242-0.987V188.66h-1.479
			c-3.231,0-6.462,0.231-9.662,0.69l-0.991-3.355c3.532,0.466,7.094,0.696,10.656,0.691h1.479c0.291-7.341,0.061-14.693-0.69-22.001
			c12.335,1.096,14.996,1.973,14.996,3.651c0,1.184-0.689,1.875-3.454,3.355v14.801c4.153-7.305,4.337-7.508,5.238-7.508
			c0.789,0,1.097,0.099,3.946,4.243c1.098,1.576,1.679,2.467,1.975,2.958c0.196-2.467,0.396-6.217,0.396-10.556
			c0-3.651-0.1-6.709-0.396-9.966c7.399,1.48,10.062,2.365,11.051,3.155h29.795c3.749-4.342,4.046-4.635,4.935-4.635
			c0.789,0,1.37,0.099,5.029,3.056c3.257,2.568,3.562,3.059,3.562,3.947c0,0.789-0.296,1.096-2.664,3.056v1.877
			c0,3.256,0.592,7.595,0.592,10.062c0,3.256-2.763,4.44-6.51,4.44c-2.96,0-3.837-0.691-3.837-3.059H46.439v0.987
			c0,2.862-2.071,3.651-6.414,3.651c-2.763,0-3.156-0.397-3.156-3.253v-0.496c-0.181,0.11-0.383,0.177-0.592,0.197H25.82
			L25.822,206.221L25.822,206.221z M79.986,209.28c5.723-6.91,5.92-7.006,6.71-7.006c0.985,0,1.281,0.096,4.835,3.648
			c3.552,3.552,3.649,3.75,3.649,4.44c0,0.691-0.396,0.888-0.985,0.888H70.896c8.771,2.861,9.374,3.563,9.374,4.536
			c0,0.973-0.492,1.371-3.257,1.974c-3.837,3.457-5.92,5.329-8.091,7.302h9.966c5.821-7.104,6.029-7.203,6.907-7.203
			c0.877,0,1.185,0.099,4.835,3.837c3.453,3.454,3.65,3.747,3.65,4.44c0,0.693-0.396,0.885-0.987,0.885H68.838
			c0,0.987-0.297,1.371-1.579,2.171v8.878h8.188c5.723-7.299,5.92-7.4,6.81-7.4c0.888,0,1.184,0.099,5.031,4.045
			c3.354,3.454,3.562,3.75,3.562,4.44c0,0.69-0.396,0.888-0.986,0.888H67.26c0,6.115,0.296,10.851,0.296,11.937
			c0,2.763-2.072,4.339-8.285,4.339c-3.454,0-3.946-0.787-3.946-3.354c0-1.371,0.396-6.708,0.396-12.924h-9.67
			c-3.335-0.038-6.666,0.193-9.965,0.69l-0.888-3.366c3.603,0.426,7.226,0.657,10.853,0.691h9.67c0-4.934,0-8.388-0.1-11.049H43.779
			c-3.335-0.039-6.668,0.192-9.967,0.69l-0.889-3.354c3.603,0.425,7.225,0.655,10.852,0.69h7.303
			c-2.271-0.592-3.354-2.368-3.256-5.526c0.099-4.045-0.1-7.006-2.271-8.286h-2.171c-3.336-0.039-6.669,0.192-9.967,0.69
			l-0.883-3.327c3.603,0.425,7.226,0.655,10.853,0.69h12.231v-9.27h-7.2c-3.365,0.006-6.729,0.237-10.062,0.69l-0.985-3.454
			c3.662,0.498,7.354,0.761,11.049,0.79h7.203c0.029-3.099-0.136-6.197-0.493-9.275c13.813,1.096,15.394,1.675,15.394,3.256
			c0,1.096-0.592,1.776-3.354,2.861v3.158h6.511c5.539-6.513,5.723-6.715,6.513-6.715c0.789,0,1.185,0.197,4.935,3.947
			c2.86,2.859,3.257,3.155,3.257,3.837s-0.297,0.888-0.986,0.888H67.159v9.281L79.986,209.28z M48.12,170.799
			c-0.502,0.471-1.065,0.871-1.678,1.187v13.614h5.031v-10.259c0-1.371,0-3.059-0.1-4.539L48.12,170.799z M64.99,225.07
			c0.89-3.563,1.579-6.611,2.171-9.966c0.236-1.269,0.401-2.55,0.493-3.837H48.317c7.695,1.283,9.963,4.835,9.963,8.387
			c0.113,2.507-1.522,4.76-3.944,5.424L64.99,225.07z M64.891,175.343c0-1.37,0-3.059-0.1-4.539h-3.354
			c0,0.69-0.396,0.986-1.479,1.776v13.022h4.935L64.891,175.343L64.891,175.343z M75.151,170.806c0,0.69-0.396,0.986-1.479,1.776
			v13.022h5.229v-14.801L75.151,170.806z"/>
		<path fill="#1393A0" d="M64.3,290.89c6.217-6.305,6.71-6.611,7.695-6.611c1.186,0,1.775,0.099,9.67,6.91
			c4.146,3.563,4.637,4.339,4.637,5.325c0,1.579-0.69,1.974-6.907,3.355c-7.104,3.651-14.01,7.401-21.805,11.446
			c2.467,0.592,2.763,1.184,2.763,1.974c0,1.096-0.396,1.579-4.339,3.651v11.153c0,14.502,0.689,29.106,0.689,32.56
			c0.377,4.505-2.005,8.792-6.028,10.852c-3.387,1.74-7.159,2.589-10.965,2.467c-1.618,0.155-3.083-0.965-3.354-2.568
			c-1.369-4.635-3.256-7.795-10.964-9.966c-0.592-0.194-0.592-1.096,0-1.096c4.308,0.265,8.627,0.199,12.924-0.197
			c3.257-0.395,4.343-1.974,4.343-4.635v-26.439c0.268-6.685,0.036-13.38-0.689-20.031c5.028,0.494,8.771,0.987,11.442,1.371
			c3.837-5.424,7.795-11.446,11.445-17.561H24.737c-3.453,0-7.007,0.197-12.627,0.69l-0.987-3.355
			c6.511,0.494,10.164,0.691,13.614,0.691L64.3,290.89z"/>
		<path fill="#1393A0" d="M11.418,438.604c-2.979,4.454-6.489,8.529-10.459,12.134c-0.492,0.395-1.186-0.296-0.888-0.789
			c5.031-7.796,10.655-23.384,14.898-42.523c0.493-2.27,0.985-4.638,1.283-7.104c14.305,5.032,14.994,6.217,14.994,7.496
			c0,1.185-0.789,2.07-4.539,3.156c-2.175,5.718-4.85,11.229-7.991,16.477c5.229,2.171,6.304,3.059,6.304,4.145
			c0,0.89-0.592,1.578-3.059,2.568v22.1c0,23.682,0.196,29.797,0.196,32.267c0,2.763-2.467,4.242-7.303,4.242
			c-3.75,0-4.342-0.789-4.342-3.354c0-2.564,0.396-9.275,0.592-23.976L11.418,438.604z M37.959,473.14v6.908
			c0,2.567-1.974,3.946-6.51,3.946c-3.649,0-4.046-0.595-4.046-3.456c0-1.675,0.69-10.654,0.69-22.89c0-7.598,0-9.472-0.296-14.7
			c3.141,0.667,6.213,1.625,9.176,2.86v-19.338h-1.479c-1.775,0-4.935,0.194-9.567,0.69l-0.983-3.357
			c3.5,0.469,7.026,0.697,10.558,0.69h1.479v-5.525c0.13-5.761-0.035-11.522-0.492-17.269c13.431,1.579,14.801,2.467,14.801,3.838
			c0,0.986-0.492,1.776-3.649,3.256v15.688h0.493c4.046-6.414,4.242-6.511,4.935-6.511c0.788,0,1.097,0.098,4.342,4.146
			c2.071,2.563,2.271,2.96,2.271,3.453c0,0.593-0.396,0.889-1.098,0.889H47.619v19.634c3.562-4.243,3.946-4.438,4.639-4.438
			c0.889,0,1.185,0.099,5.325,3.837c2.468,2.27,2.664,2.763,2.664,3.453c0,0.79-0.396,1.097-2.664,2.667v6.511
			c0,8.771,0.396,14.898,0.396,16.676c0,2.763-2.664,3.944-7.596,3.944c-2.565,0-3.257-0.691-3.257-3.254v-2.368L37.959,473.14z
			 M47.135,471.167v-22.893H39.14c-0.308,0.502-0.709,0.938-1.186,1.283v21.609H47.135z M78.906,425.486
			c8.091,2.269,10.163,3.648,10.163,4.835c0,0.888-0.593,1.479-3.453,2.467c-0.854,11.482-3.588,22.747-8.089,33.346
			c5.349,6.111,11.77,11.194,18.942,14.999c0.493,0.293,0.396,0.886-0.198,1.099c-3.56,1.468-6.371,4.313-7.795,7.894
			c-0.592,1.185-1.185,1.974-1.875,1.974c-1.148-0.08-2.232-0.564-3.06-1.369c-4.942-4.038-9.178-8.875-12.528-14.31
			c-7.438,8.881-17.538,15.132-28.806,17.83c-0.592,0.099-1.096-0.789-0.492-0.986c9.768-4.046,19.042-13.22,25.062-25.452
			c-2.724-11.33-3.819-22.99-3.257-34.633c-2.112,3.358-4.596,6.472-7.399,9.275c-0.396,0.395-1.186-0.197-0.89-0.69
			c3.355-6.116,6.218-17.562,7.993-35.022c0.197-2.368,0.296-3.837,0.396-6.512c13.021,3.451,14.604,4.045,14.604,5.523
			c0,1.187-0.396,1.875-3.256,2.763c-1.523,5.166-3.506,10.187-5.921,14.999h12.633c5.329-7.398,5.625-7.595,6.411-7.595
			c0.69,0,1.186,0.096,4.935,3.944c2.961,2.959,3.453,3.561,3.453,4.539c0.036,0.567-0.396,1.061-0.966,1.097
			c-0.044,0.003-0.087,0.003-0.131,0L78.906,425.486z M67.942,425.486c-0.789,1.479-1.579,2.859-2.368,4.24
			c0.271,9.106,2.04,18.106,5.229,26.642c2.334-10.135,3.591-20.488,3.75-30.888L67.942,425.486z"/>
		<path fill="#1393A0" d="M84.722,548.722c4.146-7.694,4.735-8.283,5.328-8.283c0.592,0,0.986,0.195,3.65,3.749
			c2.96,4.046,3.157,4.339,3.157,5.228c0,0.888-0.493,1.282-1.679,1.282H84.72v8.881c0,31.965,0.493,41.142,0.493,45.974
			c0,2.862-1.975,4.736-7.696,4.736c-3.838,0-4.735-0.592-4.735-3.837v-5.821H61.818v5.525c0,3.354-3.061,4.539-7.697,4.539
			c-3.945,0-4.539-0.986-4.539-3.563c0-2.763,0.89-15.097,0.89-46.87v-9.569H45.85c1.37,1.578,1.578,2.07,1.578,2.763
			c0,0.888-0.493,1.188-1.974,1.188H29.967v19.634h0.592c4.639-5.726,4.935-6.03,5.821-6.03c0.986,0,1.578,0.296,6.029,4.243
			c3.061,2.664,3.65,3.453,3.65,4.342c0,0.888-0.196,1.184-2.96,3.453v5.131c0,7.497,0.493,13.705,0.493,16.477
			c0,2.961-3.651,5.032-7.103,5.032c-3.65,0-4.539-0.888-4.539-4.145v-2.271H17.333v4.539c0,3.058-2.564,4.736-7.199,4.736
			c-3.562,0-4.243-0.493-4.243-3.837c0-1.579,0.592-10.854,0.592-20.831c0-6.307,0-10.26-0.296-15.095
			c7.597,1.875,10.965,3.152,12.136,4.241h0.492v-19.634h-5.621c-3.336-0.04-6.669,0.191-9.967,0.69l-0.888-3.357
			c3.602,0.427,7.224,0.657,10.851,0.69h5.625v-6.907c0-4.438,0-7.2-0.099-9.568c-5.725,0.493-11.346,0.789-16.971,0.789
			c-0.592,0-0.789-0.984-0.196-1.096c10.701-2.63,20.992-6.712,30.587-12.135c1.096-0.609,2.121-1.337,3.06-2.171
			c10.559,7.596,11.838,9.177,11.838,10.852c0,1.579-1.37,1.678-6.411,1.283c-2.86,0.396-5.724,0.789-8.497,1.096
			c0.08,0.151,0.114,0.323,0.1,0.494c0,0.986-0.592,1.282-2.271,2.171v15.192h3.158c5.229-7.792,5.624-7.893,6.304-7.893
			c0.79,0,1.186,0.293,4.639,3.944h6.414c0.25-9.446-0.015-18.899-0.789-28.317c12.334,1.68,15.392,2.861,15.392,4.147
			c0,1.478-0.89,2.168-3.258,3.55v20.62h10.965c0.3-9.418,0.035-18.846-0.789-28.232c12.137,1.48,16.277,2.664,16.277,3.947
			c0,1.282-0.888,2.269-3.562,3.354L84.722,548.722z M31.937,598.547v-22.298H18.62c-0.389,0.41-0.817,0.777-1.282,1.097v21.212
			L31.937,598.547z M61.833,550.695v20.62h10.965v-20.62H61.833z M72.797,598.646v-25.356H61.832v25.356H72.797z"/>
		<path fill="#1393A0" d="M11.22,707.779c2.434,3.858,3.638,8.368,3.454,12.927c0.295,4.184-2.822,7.829-7.001,8.188
			c-2.619,0.354-5.029-1.479-5.385-4.101c-0.032-0.243-0.048-0.489-0.043-0.734c0-1.479,0.689-2.665,3.258-5.132
			c3.072-2.871,4.731-6.943,4.537-11.146C10.037,707.187,10.922,707.286,11.22,707.779z M36.676,642.663
			c3.354-4.539,3.649-4.736,4.341-4.736c0.594,0,1.098,0.101,4.836,3.154c3.06,2.568,3.562,3.059,3.562,3.947
			c0,0.688-0.196,0.982-2.664,3.056v8.497c0,7.497,0.593,14.802,0.593,17.269c0,3.258-1.678,4.438-6.907,4.438
			c-2.171,0-2.564-0.69-2.564-3.155v-1.187h-7.399v11.444h3.242c5.032-6.113,5.525-6.609,6.217-6.609
			c0.89,0,1.186,0.099,4.935,3.649c2.664,2.568,3.061,3.157,3.061,3.837c0,0.682-0.297,1.099-0.986,1.099H30.465v7.398
			c5.82-0.592,11.237-1.281,17.269-2.07c0.252-0.062,0.505,0.097,0.562,0.349c0.053,0.22-0.062,0.446-0.269,0.537
			c-12.443,5.487-25.269,10.069-38.373,13.704c-0.593,2.07-1.282,2.664-2.171,2.664c-1.479,0-2.368-1.578-5.132-13.616
			c2.139,0.076,4.279,0.044,6.414-0.097c4.539-0.197,8.497-0.496,12.231-0.69v-8.188h-4.351c-3.364,0.007-6.729,0.235-10.062,0.689
			l-0.985-3.454c3.662,0.498,7.354,0.763,11.05,0.79h4.342v-11.446h-7.01v2.469c0,2.859-1.775,3.648-5.229,3.648
			c-3.257,0-3.65-0.396-3.65-2.86c0-1.975,0.493-10.965,0.493-24.372c0-8.188,0-11.146-0.296-14.403
			c6.906,2.072,9.374,3.354,10.263,4.243L36.676,642.663z M13.978,651.048c4.025,1.112,7.079,4.399,7.893,8.496v-10.558
			c0-1.283,0-2.861-0.1-4.344h-6.212c-0.489,0.415-1.02,0.782-1.578,1.099L13.978,651.048z M13.978,671.964h7.896v-8.497
			c-0.289,1.981-1.945,3.479-3.946,3.563c-1.774,0-2.664-1.48-2.664-3.254c0-1.283,0.296-2.861,0.494-5.032
			c0.249-2.253-0.389-4.514-1.775-6.305L13.978,671.964z M26.508,719.618c0,4.539-2.271,6.907-6.03,6.907
			c-2.104-0.237-3.682-2.03-3.65-4.146c0-1.283,0.197-2.563,0.396-4.635c0.767-3.645,0.058-7.439-1.975-10.561
			c-0.396-0.491,0.298-0.688,0.89-0.491c5.933,1.546,10.147,6.798,10.377,12.924L26.508,719.618L26.508,719.618z M37.745,718.335
			c0.329,2.813-1.687,5.36-4.498,5.689c-0.178,0.021-0.354,0.029-0.533,0.032c-2.664,0-4.047-2.07-4.047-4.835
			c0.043-5.334-2.312-10.403-6.413-13.812c-0.493-0.396,0.197-0.691,0.789-0.593c11.065,2.37,14.717,7.895,14.717,13.519H37.745
			L37.745,718.335z M37.843,644.634h-6.792c-0.1,0.592-0.493,0.89-1.479,1.578v17.857c0.79-3.354,1.479-7.496,1.875-9.867
			c0.296-1.675,0.396-2.858,0.593-4.635c2.035,0.864,3.984,1.924,5.821,3.155L37.843,644.634z M37.843,671.964v-16.279
			c-0.296,0.198-0.689,0.496-1.185,0.79c-1.975,2.96-4.046,6.03-7.104,10.656v4.836L37.843,671.964z M48.596,715.271
			c0,3.059-1.479,6.028-5.131,6.028c-1.975,0-3.838-1.281-4.243-5.131c-0.349-5.451-3.806-10.214-8.881-12.231
			c-0.493-0.298-0.197-0.789,0.396-0.789c13.338,0.289,17.877,6.504,17.877,12.129L48.596,715.271z M79.874,662.683
			c5.721-7.595,6.411-8.188,7.303-8.188c0.985,0,1.975,0.691,5.82,4.539c3.158,3.155,3.65,3.747,3.65,4.537
			c0,0.688-0.492,1.096-1.282,1.096H74.553v23.087h3.649c4.439-5.821,4.936-6.117,5.822-6.117c1.184,0,2.171,0.597,5.82,3.749
			c3.838,3.355,4.439,3.838,4.439,4.835c0,0.998-0.493,1.48-3.06,3.651v9.966c0,7.497,0.493,16.172,0.493,20.028
			c0,2.96-3.453,4.638-7.992,4.638c-3.454,0-3.946-0.496-3.946-3.749v-3.355H60.647v3.562c0,3.058-1.678,4.736-7.302,4.736
			c-3.562,0-3.837-0.493-3.837-3.838c0-1.575,0.493-12.136,0.493-27.231c0.136-5.104,0.004-10.217-0.396-15.311
			c8.388,2.467,11.237,3.453,12.232,4.438h1.479v-30.887c0.148-6.422-0.081-12.847-0.69-19.241
			c13.91,0.986,15.391,2.271,15.391,3.749c0,0.984-0.689,1.675-3.453,2.961v18.349L79.874,662.683z M79.775,719.421v-29.696H61.833
			c-0.322,0.438-0.725,0.811-1.186,1.099v28.611L79.775,719.421z"/>
		<path fill="#1393A0" d="M57.285,776.073c0-11.446-5.229-16.172-12.035-16.172c-5.624,0-10.262,3.75-10.262,7.303
			c-0.071,1.127,0.502,2.197,1.479,2.763c1.965,1.312,3.206,3.462,3.354,5.818c0.222,3.869-2.734,7.186-6.604,7.407
			c-0.298,0.017-0.598,0.015-0.896-0.008c-3.976,0.116-7.291-3.012-7.408-6.984c-0.006-0.203-0.003-0.406,0.009-0.609
			c0-9.473,11.348-18.364,24.073-18.364c14.602,0,23.187,7.696,23.187,18.641c0,8.387-3.06,13.617-15.392,23.383
			c-7.499,5.921-8.979,8.188-8.979,13.617c0.027,1.066,0.193,2.129,0.494,3.152c-0.188,1.103-1.152,1.898-2.271,1.875
			c-0.69,0-0.986-0.491-0.986-1.184c0-10.853,0.789-13.911,5.327-20.521C55.813,788.208,57.285,783.967,57.285,776.073z
			 M54.633,833.798c0.025,4.441-3.553,8.063-7.993,8.091c-4.44,0.028-8.062-3.551-8.091-7.99c-0.028-4.441,3.551-8.063,7.991-8.093
			c0.033-0.001,0.064-0.001,0.1,0C51.043,825.832,54.605,829.396,54.633,833.798z"/>
	</g>
</g>
</svg>
