<?xml version="1.0" encoding="utf-8"?>
<!-- Generator: Adobe Illustrator 16.0.0, SVG Export Plug-In . SVG Version: 6.00 Build 0)  -->
<!DOCTYPE svg PUBLIC "-//W3C//DTD SVG 1.1//EN" "http://www.w3.org/Graphics/SVG/1.1/DTD/svg11.dtd">
<svg version="1.1" id="圖層_1" xmlns="http://www.w3.org/2000/svg" xmlns:xlink="http://www.w3.org/1999/xlink" x="0px" y="0px"
	 width="226.988px" height="841.891px" viewBox="0 0 226.988 841.891" enable-background="new 0 0 226.988 841.891"
	 xml:space="preserve">
<g transform="translate(44.549 163.893)">
	<g transform="translate(-44.549 -163.893)">
		<path fill="#1393A0" d="M167.541,21.92c8.877,0.277,13.22,4.623,13.22,9.431c0.261,2.694-1.712,5.089-4.404,5.35
			c-0.259,0.024-0.517,0.029-0.771,0.014c-2.497,0-3.976-1.285-4.253-4.438c0-3.379-1.366-6.614-3.789-8.969
			c0.093,19.777,0.37,23.578,0.37,25.147c0,2.496-2.774,3.596-6.75,3.596c-3.421,0-4.065-0.74-4.065-2.959
			c0-1.757,0.187-6.377,0.462-16.826v-1.759c-5.077,6.297-11.444,11.435-18.675,15.069c-0.463,0.277-1.107-0.462-0.646-0.83
			c6.38-4.993,13.772-19.137,15.899-28.568h-3.514c-3.154,0.006-6.306,0.222-9.432,0.647l-0.927-3.236
			c3.436,0.466,6.895,0.713,10.356,0.74h6.935c0-7.859,0-9.706-0.37-14.329c13.13,1.027,13.774,1.569,13.774,3.144
			c0,0.925-0.462,1.757-3.421,2.867v8.332h0.832c4.344-6.377,4.623-6.562,5.455-6.562c0.833,0,1.028,0.092,4.161,3.514
			c2.671,2.866,2.866,3.236,2.866,3.875c0,0.639-0.277,1.027-0.926,1.027h-12.391L167.541,21.92L167.541,21.92z M153.949,55.575
			c2.258,4.801,3.427,10.042,3.421,15.349c0.342,5.521-3.857,10.275-9.379,10.616c-0.142,0.009-0.279,0.014-0.42,0.017
			c-3.368,0.152-6.224-2.456-6.373-5.824c-0.005-0.093-0.007-0.186-0.007-0.278c0.003-2.732,1.488-5.247,3.884-6.565
			c4.991-2.477,8.062-7.652,7.847-13.22C152.922,55.112,153.674,55.112,153.949,55.575z M172.994,70.923
			c0,3.236,0.925,3.883,9.339,3.883c10.354,0,13.034-1.027,15.716-3.696c2.496-2.499,4.438-6.01,6.937-12.945
			c0.186-0.555,0.832-0.462,0.832,0.092c-0.369,6.01-0.646,9.524-0.646,11.466c-0.071,1.633,0.57,3.218,1.757,4.343
			c1.166,1.079,1.863,2.573,1.941,4.161c0,4.068-2.866,7.212-27.087,7.212c-18.027,0-19.776-2.312-19.776-9.246
			c0-3.421,0.187-10.354,0.187-14.054c0.022-3.029-0.161-6.056-0.557-9.059c12.39,1.109,14.146,2.126,14.146,3.339
			c0,0.833-0.557,1.387-2.774,2.589L172.994,70.923z M194.628,61.957c0.107,3.465-2.614,6.361-6.079,6.469
			c-0.067,0.002-0.139,0.003-0.209,0.003c-2.646,0.301-5.036-1.6-5.338-4.247c-0.024-0.218-0.035-0.437-0.029-0.656
			c-0.833-5.363-2.59-8.691-5.729-10.815c-0.463-0.277-0.277-0.833,0.275-0.833c12.585-0.095,17.11,4.991,17.11,10.076
			L194.628,61.957z M192.684,47.255c0,2.589-2.312,3.976-7.117,3.976c-3.054,0-3.698-0.832-3.791-2.497
			c-0.095-1.387,0.368-9.986,0.368-24.962c0-14.422-0.093-17.288-0.463-21.264c9.339,2.126,12.11,2.866,12.76,3.883h13.035
			c4.071-4.623,4.351-4.811,5.183-4.811c1.025,0,1.387,0.185,5.271,3.239c3.978,3.144,4.253,3.596,4.253,4.438
			c0,0.842-0.275,1.109-2.589,3.236v9.247c0,17.75,0.37,24.143,0.37,25.055c0,2.589-2.866,3.791-7.859,3.791
			c-2.864,0-3.596-0.74-3.596-3.144v-2.683h-15.819L192.684,47.255z M194.074,8.241c-0.425,0.289-0.895,0.508-1.39,0.647v9.521
			h15.811V8.231L194.074,8.241z M192.684,20.261v10.171h15.811V20.259L192.684,20.261z M208.497,42.904V32.271h-15.811v10.633
			H208.497z M225.88,68.234c0.391,3.78-2.355,7.161-6.138,7.551c-0.326,0.034-0.654,0.044-0.981,0.031
			c-3.144,0-5.548-2.127-5.907-6.288c-0.646-6.842-2.495-11.558-6.563-14.702c-0.217-0.129-0.289-0.409-0.16-0.626
			c0.108-0.183,0.328-0.267,0.53-0.203c11.73,1.207,19.222,6.663,19.222,14.242L225.88,68.234L225.88,68.234z"/>
		<path fill="#1393A0" d="M169.483,139.816c0,15.153,0.556,21.911,0.556,24.315c0,2.867-1.852,4.531-7.672,4.531
			c-2.404,0-3.146-0.925-3.146-3.596v-2.034h-7.024v7.859c0,2.771-2.497,3.976-7.49,3.976c-1.941,0-2.773-0.465-2.773-3.421
			c0-2.589,0.369-17.208,0.369-30.51c0-10.633,0-15.809-0.369-21.171c8.781,2.219,11.464,3.514,12.298,4.623h3.975
			c3.698-4.806,4.068-5.083,4.898-5.083c0.927,0,1.202,0,5.271,3.339c3.514,2.867,3.791,3.339,3.791,4.161
			c0,0.922-0.186,1.202-2.682,3.339L169.483,139.816L169.483,139.816z M159.209,161.17v-34.931h-4.98
			c-0.604,0.532-1.293,0.965-2.031,1.284v33.646L159.209,161.17L159.209,161.17z M208.68,131.957
			c6.845-8.967,7.213-9.247,8.137-9.247c0.922,0,1.479,0.185,6.562,5.363c3.146,3.144,3.596,3.696,3.596,4.531
			s-0.367,1.202-1.569,1.202h-40.763c-3.854,5.931-8.349,11.418-13.403,16.363c-0.369,0.373-1.201-0.092-0.924-0.555
			c2.958-4.9,7.857-19.045,10.168-31.712c0.482-2.382,0.825-4.79,1.025-7.212c14.792,3.421,15.624,4.346,15.624,5.455
			c0,1.479-0.646,1.942-4.161,3.051c-2.057,4.422-4.437,8.687-7.12,12.76L208.68,131.957L208.68,131.957z M195.84,148.138
			c5.271-5.825,5.65-6.01,6.565-6.01c1.025,0,1.569,0.277,5.271,3.421c4.16,3.596,4.623,4.253,4.623,5.085
			c0,1.202-0.093,1.569-6.843,4.991c-16.733,19.229-19.602,23.206-19.602,25.24c0,2.034,0.37,2.864,13.87,2.864
			c9.8,0,13.496-1.109,15.623-3.236c3.393-4.156,5.878-8.973,7.304-14.144c0.186-0.558,0.738-0.373,0.738,0.182
			c-0.462,7.582-0.555,10.171-0.555,11.373c0.073,1.474,0.588,2.892,1.479,4.068c0.989,1.439,1.509,3.151,1.479,4.898
			c0,4.346-2.774,7.397-27.827,7.397c-21.264,0-23.853-3.596-23.853-9.521c0-4.9,0.275-6.475,21.911-34.764h-10.743
			c-3.03,0-6.06,0.217-9.059,0.65l-0.927-3.146c3.312,0.437,6.646,0.652,9.985,0.646L195.84,148.138z"/>
		<path fill="#1393A0" d="M216.541,249.385c3.884-7.212,4.438-7.765,4.993-7.765c0.555,0,0.925,0.185,3.422,3.514
			c2.771,3.791,2.958,4.066,2.958,4.898s-0.462,1.202-1.571,1.202h-9.802v8.322c0,29.953,0.463,38.552,0.463,43.08
			c0,2.681-1.85,4.438-7.212,4.438c-3.596,0-4.438-0.555-4.438-3.596v-5.455h-10.271v5.178c0,3.144-2.866,4.253-7.213,4.253
			c-3.698,0-4.253-0.925-4.253-3.339c0-2.589,0.832-14.146,0.832-43.92v-8.961h-4.33c1.284,1.479,1.479,1.941,1.479,2.589
			c0,0.832-0.463,1.112-1.85,1.112h-14.519v18.397h0.557c4.346-5.363,4.623-5.65,5.455-5.65c0.925,0,1.479,0.277,5.649,3.976
			c2.866,2.497,3.421,3.236,3.421,4.068c0,0.833-0.186,1.11-2.772,3.236v4.808c0,7.025,0.463,12.842,0.463,15.439
			c0,2.774-3.422,4.716-6.655,4.716c-3.421,0-4.253-0.833-4.253-3.884v-2.126h-13.693v4.253c0,2.863-2.403,4.438-6.747,4.438
			c-3.341,0-3.978-0.462-3.978-3.596c0-1.479,0.556-10.171,0.556-19.52c0-5.907,0-9.614-0.276-14.145
			c7.117,1.757,10.271,2.957,11.37,3.976h0.463v-18.39h-5.271c-3.126-0.037-6.249,0.18-9.339,0.647l-0.832-3.146
			c3.375,0.399,6.771,0.616,10.168,0.647h5.271v-6.473c0-4.158,0-6.747-0.093-8.966c-5.362,0.462-10.633,0.74-15.9,0.74
			c-0.556,0-0.74-0.924-0.188-1.027c10.028-2.464,19.674-6.29,28.661-11.37c1.027-0.571,1.988-1.254,2.866-2.034
			c9.896,7.117,11.093,8.599,11.093,10.168c0,1.479-1.282,1.572-6.007,1.202c-2.682,0.373-5.363,0.74-7.962,1.027
			c0.074,0.142,0.106,0.303,0.092,0.462c0,0.925-0.555,1.202-2.126,2.034v14.237h2.958c4.901-7.302,5.271-7.395,5.908-7.395
			c0.739,0,1.109,0.275,4.346,3.696h6.012c0.232-8.852-0.015-17.709-0.74-26.534c11.559,1.572,14.422,2.681,14.422,3.886
			c0,1.384-0.832,2.031-3.051,3.326v19.322h10.271c0.283-8.817,0.038-17.643-0.73-26.432c11.373,1.387,15.254,2.497,15.254,3.699
			c0,1.202-0.832,2.124-3.339,3.144L216.541,249.385z M167.079,296.074V275.18h-12.48c-0.361,0.384-0.767,0.728-1.202,1.027v19.877
			L167.079,296.074z M195.093,251.234v19.322h10.273v-19.322H195.093z M205.366,296.166v-23.76h-10.273v23.76H205.366z"/>
		<path fill="#1393A0" d="M147.667,398.426c2.279,3.617,3.407,7.841,3.236,12.112c0.274,3.922-2.647,7.339-6.565,7.672
			c-2.454,0.332-4.713-1.388-5.046-3.842c-0.03-0.229-0.044-0.459-0.039-0.688c0-1.388,0.646-2.497,3.051-4.809
			c2.88-2.69,4.437-6.509,4.253-10.445C146.553,397.86,147.385,397.963,147.667,398.426z M171.518,337.407
			c3.146-4.253,3.423-4.438,4.068-4.438c0.555,0,1.027,0.092,4.531,2.956c2.866,2.407,3.339,2.867,3.339,3.699
			c0,0.647-0.188,0.922-2.497,2.864v7.962c0,7.025,0.555,13.87,0.555,16.181c0,3.051-1.569,4.161-6.472,4.161
			c-2.034,0-2.404-0.647-2.404-2.957v-1.112h-6.935v10.726h3.038c4.716-5.73,5.178-6.195,5.825-6.195
			c0.832,0,1.107,0.093,4.623,3.421c2.494,2.407,2.864,2.958,2.864,3.596s-0.275,1.027-0.925,1.027h-15.438v6.935
			c5.454-0.555,10.528-1.202,16.181-1.941c0.236-0.056,0.473,0.09,0.528,0.327c0.049,0.206-0.059,0.417-0.25,0.503
			c-11.66,5.144-23.68,9.436-35.958,12.842c-0.557,1.942-1.202,2.497-2.034,2.497c-1.388,0-2.22-1.479-4.811-12.76
			c2.005,0.072,4.012,0.042,6.013-0.09c4.253-0.185,7.962-0.465,11.463-0.647v-7.674h-4.076c-3.154,0.006-6.304,0.222-9.429,0.647
			l-0.925-3.236c3.432,0.466,6.89,0.713,10.354,0.74h4.068v-10.726h-6.565v2.312c0,2.682-1.664,3.421-4.9,3.421
			c-3.052,0-3.421-0.373-3.421-2.682c0-1.849,0.462-10.273,0.462-22.838c0-7.672,0-10.446-0.275-13.497
			c6.473,1.942,8.784,3.144,9.616,3.976H171.518z M150.256,345.267c3.771,1.042,6.633,4.124,7.396,7.962v-9.894
			c0-1.202,0-2.682-0.095-4.068h-5.823c-0.459,0.389-0.955,0.732-1.479,1.027L150.256,345.267z M150.256,364.866h7.396v-7.962
			c-0.271,1.857-1.824,3.259-3.699,3.339c-1.664,0-2.496-1.387-2.496-3.049c0-1.202,0.277-2.681,0.462-4.715
			c0.234-2.111-0.362-4.229-1.664-5.908L150.256,364.866z M161.996,409.521c0,4.254-2.127,6.473-5.65,6.473
			c-1.97-0.222-3.45-1.901-3.422-3.883c0-1.202,0.188-2.404,0.37-4.346c0.718-3.41,0.053-6.971-1.849-9.894
			c-0.37-0.462,0.275-0.647,0.832-0.462c5.555,1.45,9.504,6.37,9.719,12.105V409.521z M172.527,408.319
			c0.309,2.636-1.579,5.021-4.217,5.33c-0.164,0.02-0.326,0.028-0.491,0.03c-2.496,0-3.791-1.939-3.791-4.528
			c0.041-4.998-2.165-9.749-6.012-12.942c-0.463-0.373,0.187-0.65,0.739-0.558c10.346,2.209,13.777,7.397,13.777,12.668H172.527z
			 M172.619,339.257h-6.372c-0.093,0.555-0.463,0.832-1.388,1.479v16.733c0.738-3.144,1.388-7.024,1.757-9.246
			c0.275-1.569,0.37-2.679,0.555-4.343c1.908,0.812,3.734,1.803,5.456,2.959L172.619,339.257z M172.619,364.866v-15.254
			c-0.277,0.185-0.647,0.465-1.109,0.74c-1.85,2.774-3.791,5.651-6.658,9.986v4.531L172.619,364.866z M182.696,405.447
			c0,2.866-1.39,5.648-4.811,5.648c-1.85,0-3.596-1.2-3.976-4.808c-0.326-5.108-3.566-9.571-8.322-11.463
			c-0.462-0.277-0.185-0.74,0.37-0.74c12.493,0.27,16.757,6.084,16.757,11.363L182.696,405.447z M212.01,356.175
			c5.36-7.117,6.008-7.672,6.843-7.672c0.926,0,1.851,0.647,5.455,4.253c2.959,2.956,3.421,3.511,3.421,4.25
			c0,0.647-0.462,1.027-1.2,1.027h-19.521v21.634h3.421c4.161-5.456,4.623-5.733,5.455-5.733c1.109,0,2.034,0.557,5.455,3.514
			c3.597,3.144,4.161,3.596,4.161,4.531s-0.462,1.387-2.866,3.421v9.339c0,7.023,0.462,15.152,0.462,18.767
			c0,2.774-3.233,4.346-7.487,4.346c-3.236,0-3.698-0.465-3.698-3.513v-3.145h-17.925v3.339c0,2.864-1.572,4.438-6.845,4.438
			c-3.339,0-3.596-0.462-3.596-3.596c0-1.477,0.462-11.37,0.462-25.517c0.128-4.78,0.004-9.562-0.369-14.329
			c7.859,2.312,10.53,3.236,11.463,4.161h1.389v-28.969c0.14-6.018-0.076-12.038-0.647-18.03
			c13.035,0.924,14.422,2.126,14.422,3.514c0,0.922-0.646,1.569-3.234,2.774v17.193L212.01,356.175z M211.918,409.341v-27.833
			h-16.825c-0.303,0.409-0.679,0.757-1.107,1.027v26.812L211.918,409.341z"/>
		<path fill="#1393A0" d="M173.828,533.052v-92.463h2.959v92.463H173.828z"/>
		<path fill="#1393A0" d="M173.828,625.515v-92.463h2.959v92.463H173.828z"/>
		<path fill="#1393A0" d="M50.849,115.028c3.146,0.09,6.842,0.183,11.093,0.183c8.687,0.185,17.371-0.309,25.979-1.477
			c0.555-0.092,0.646,0.737,0.185,1.027c-3.921,2.089-6.602,5.932-7.209,10.333c-0.154,1.329-1.253,2.348-2.589,2.407
			c-4.829,0.367-9.675,0.459-14.515,0.275c-14.236,0-23.205-2.126-29.216-6.01c-5.295-3.17-9.044-8.39-10.355-14.421
			c-6.296,8.768-14.684,15.823-24.4,20.524c-0.555,0.185-1.025-0.462-0.555-0.833c6.195-4.623,14.609-18.028,18.86-33.374
			c0.555-2.126,0.924-3.596,1.387-5.825c13.584,4.639,14.231,5.096,14.231,6.39c0,1.202-0.37,1.572-3.516,2.497
			c-1.285,3.244-2.962,6.317-4.993,9.154c1.855,3.057,4.739,5.352,8.137,6.473c1.832,0.693,3.723,1.218,5.648,1.569V94.597
			c0-3.421,0-6.288-0.275-9.524H13.869c-3.521-0.01-7.038,0.206-10.53,0.647l-0.928-3.144c4.809,0.462,8.507,0.647,11.466,0.647
			h55.188c6.378-8.137,6.565-8.219,7.489-8.219c0.925,0,1.202,0,6.288,4.9c3.339,3.144,3.596,3.339,3.596,4.253
			c0.018,0.498-0.374,0.915-0.872,0.931c-0.052,0.002-0.104-0.001-0.153-0.008H52.885c-0.093,0.647-0.555,1.109-2.034,1.849v13.127
			h11.188c6.103-7.672,6.287-7.765,7.115-7.765c1.027,0,1.201,0.093,6.104,4.716c3.144,2.956,3.339,3.144,3.339,3.976
			c0.056,0.455-0.268,0.869-0.723,0.924c-0.067,0.008-0.137,0.008-0.202,0H50.852v13.121H50.849z M29.862,76.381
			c0,2.681-2.312,3.883-7.582,3.883c-3.233,0-4.066-0.647-4.066-2.956c0-1.665,0.275-9.059,0.275-20.064
			c0-4.623,0-10.354-0.275-14.145c10.169,2.034,12.668,3.051,13.313,3.884h24.5c4.348-4.991,4.623-5.178,5.65-5.178
			c0.925,0,1.387,0.092,6.103,3.596c3.978,2.959,4.161,3.339,4.161,4.161c0,0.74-0.186,0.924-2.402,2.774v8.319
			c0,8.044,0.462,11.928,0.462,13.592c0,2.681-2.773,4.158-8.221,4.158c-3.696,0-4.346-0.555-4.346-3.236v-1.757H29.862V76.381
			L29.862,76.381z M31.343,48.83c-0.459,0.389-0.954,0.733-1.479,1.027v9.228h27.554V48.812L31.343,48.83z M57.415,71.573V60.94
			H29.861v10.633H57.415z"/>
		<path fill="#1393A0" d="M54.456,164.409c7.115,1.572,7.962,2.774,7.962,3.699c0,1.202-1.027,1.941-3.883,2.312
			c-2.638,4.768-5.702,9.284-9.162,13.492c2.402,0.647,2.68,1.285,2.68,1.942c0,0.922-0.278,1.284-2.22,2.312v13.315
			c0,17.01,0.832,31.247,0.832,34.394c0,2.679-3.053,4.066-8.414,4.066c-3.516,0-4.713-0.74-4.713-3.511
			c0-2.589,0.462-15.716,0.462-34.946v-5.455c-10.932,10.452-23.769,18.706-37.812,24.313c-0.555,0.187-1.108-0.832-0.646-1.109
			c13.497-8.137,33.836-31.078,42.893-49c0.993-1.895,1.889-3.839,2.684-5.825H16.369c-3.235,0-6.844,0.185-12.109,0.647
			l-0.925-3.144c6.1,0.462,9.799,0.647,13.034,0.647H66.11c7.396-8.599,7.767-8.874,8.688-8.874c1.027,0,1.388,0.182,6.658,4.99
			c3.421,3.051,4.16,4.069,4.16,4.716s-0.464,1.027-1.202,1.027L54.456,164.409z M87.184,208.878c0,5.65-3.234,8.412-7.119,8.412
			c-3.339,0-5.456-1.849-7.115-6.657c-3.424-9.986-10.636-20.247-19.14-25.24c-0.228-0.169-0.273-0.491-0.104-0.718
			c0.108-0.149,0.292-0.227,0.476-0.204C73.685,186.598,87.184,198.522,87.184,208.878z"/>
		<path fill="#1393A0" d="M15.071,281.097c0.188,0.88,0.281,1.779,0.277,2.679c0,5.18-2.404,10.448-7.765,10.448
			c-2.896,0.35-5.523-1.712-5.873-4.606c-0.034-0.281-0.046-0.565-0.034-0.849c-0.007-2.229,1.104-4.312,2.959-5.547
			c3.966-2.864,5.994-5.268,5.994-9.416c0-0.558,0.556-0.558,0.925-0.093c1.362,1.637,2.398,3.519,3.052,5.545h23.854
			c0.09-2.561-0.003-5.125-0.277-7.672H23.854c-3.367,0.039-6.729,0.255-10.076,0.647l-0.924-3.144c4.81,0.462,8.134,0.647,11,0.647
			h39.479c5.086-6.473,5.648-6.657,6.473-6.657c0.739,0,1.109,0.092,5.085,3.514c3.514,2.956,3.699,3.511,3.699,4.158
			c0,0.555-0.37,0.832-1.027,0.832H51.777c0,0.647-0.555,1.109-1.849,1.662v6.01h20.709c4.716-5.271,5.363-5.73,6.1-5.73
			c0.833,0,1.852,0.37,7.12,4.809c3.516,2.956,4.253,4.158,4.253,5.73c0,1.109-1.107,1.849-3.596,2.034
			c-1.553,0.05-3.072,0.461-4.438,1.202c-1.759,0.925-3.791,2.127-8.412,4.531c-0.462,0.277-0.832,0-0.647-0.555
			c0.993-3.341,1.796-6.736,2.404-10.168H49.93v0.83c0,9.431,0.463,18.123,0.463,19.877c0,2.219-1.757,3.421-7.767,3.421
			c-3.699,0-4.716-0.925-4.716-2.959c0-1.757,0.555-10.53,0.555-21.169L15.071,281.097z M71.651,307.354
			c5.729-6.565,6.287-7.12,7.116-7.12c0.74,0,1.479,0.465,5.271,3.883c3.339,3.051,3.697,3.514,3.697,4.253
			c0,0.462-0.275,0.832-1.025,0.832H51.404c0,1.027-0.463,1.387-2.864,1.849c-3.598,2.867-5.73,4.531-8.602,6.657h24.595
			c4.621-4.9,4.898-5.083,5.823-5.083c1.027,0,1.479,0.09,6.937,3.883c1.85,1.284,2.312,1.757,2.312,2.589
			c0,0.74-0.185,1.11-2.496,3.236v5.083c0,8.319,0.277,12.295,0.277,13.5c0.221,3.688-1.885,7.121-5.271,8.597
			c-1.813,0.652-3.726,1-5.65,1.027c-1.479,0-1.942-0.647-2.312-2.219c-0.66-2.749-2.741-4.934-5.453-5.73v1.941
			c0,2.219-1.852,3.421-8.222,3.421c-2.219,0-2.681-0.647-2.681-2.959c0-0.922,0.277-11.093,0.277-19.32c0-2.496,0-4.44-0.095-6.103
			h-6.271c-0.275,0.375-0.625,0.69-1.027,0.925v5.083c0,8.319,0.277,17.75,0.277,18.952c0,2.219-1.851,3.421-7.582,3.421
			c-2.866,0-3.339-0.647-3.339-2.959c0-0.922,0.275-10.908,0.275-19.415c0-2.497,0-4.253-0.092-6.01h-5.723
			c-0.49,0.5-1.018,0.963-1.572,1.387v3.513c0,12.203,0.093,20.522,0.093,22.001c0,2.497-1.757,3.791-7.305,3.791
			c-3.146,0-3.596-0.74-3.596-2.864c0-2.034,0.462-12.298,0.462-20.987c0-4.253-0.092-7.305-0.369-11.743
			c8.781,1.664,11.558,2.219,12.387,3.051h10.274c0.646-2.959,1.284-5.548,1.849-8.507H13.864
			c-3.678-0.012-7.353,0.204-11.003,0.647l-0.925-3.144c4.81,0.462,8.969,0.647,11.928,0.647L71.651,307.354z M11.551,297.461
			c2.669,0.312,5.354,0.467,8.042,0.462H25.5c3.596-4.438,3.884-4.623,4.438-4.623c0.462,0,1.109,0.185,3.598,2.497
			c2.126,1.942,2.402,2.589,2.402,3.144c0.06,0.401-0.221,0.774-0.622,0.832c-0.068,0.01-0.141,0.01-0.211,0H19.601
			c-1.664,0-4.346,0.092-7.305,0.372L11.551,297.461z M24.135,290.619c-1.571,0-4.343,0.092-7.212,0.37l-0.739-2.679
			c2.644,0.315,5.301,0.47,7.962,0.462h1.202c3.596-4.438,3.978-4.531,4.438-4.531s0.832,0.092,3.596,2.589
			c2.126,1.849,2.312,2.404,2.312,2.956c0.06,0.402-0.221,0.774-0.622,0.833c-0.068,0.01-0.141,0.01-0.21,0H24.135z M51.875,297.461
			c2.729,0.315,5.473,0.469,8.219,0.462h5.825c3.791-4.623,4.161-4.808,4.809-4.808c0.369,0,1.109,0.185,4.343,2.958
			c2.129,1.757,2.312,2.217,2.312,2.774c0,0.647-0.277,0.922-0.832,0.922H60.097c-1.85,0-4.623,0.093-7.489,0.373L51.875,297.461z
			 M58.992,290.619c-1.572,0-3.423,0.092-6.285,0.37l-0.739-2.679c2.328,0.309,4.675,0.463,7.024,0.462h1.107
			c3.596-4.438,3.978-4.531,4.438-4.531s0.925,0.182,3.421,2.589c2.127,2.127,2.312,2.404,2.312,2.956
			c0.061,0.402-0.22,0.774-0.622,0.833c-0.067,0.01-0.141,0.01-0.21,0H58.992z M58.436,325.66c0,5.73,0.093,12.203,0.187,15.901
			c1.944,0.032,3.892-0.061,5.823-0.277c0.809-0.073,1.415-0.763,1.389-1.572v-20.155H59.45c-0.095,0.37-0.464,0.555-1.027,0.925
			L58.436,325.66z"/>
		<path fill="#1393A0" d="M69.618,426.172c6.38-7.767,6.842-8.219,7.764-8.219s1.479,0.277,6.103,4.53
			c3.516,3.234,3.979,3.791,3.979,4.438c0,0.74-0.37,1.112-1.027,1.112H60.098c5.907,1.202,6.937,2.034,6.937,2.956
			c0,1.11-0.647,1.57-4.068,2.589c-1.684,3.1-3.599,6.065-5.73,8.877c5.102,0.974,9.984,2.852,14.423,5.545
			c3.791,2.406,5.271,4.346,5.271,7.767c-0.271,3.143-2.859,5.575-6.01,5.651c-2.696-0.029-5.253-1.207-7.027-3.236
			c-3.986-3.504-8.359-6.543-13.035-9.059c-10.528,8.873-25.237,12.664-47.336,11.928c-0.555,0-0.646-0.925-0.092-0.925
			c16.548-1.284,29.678-6.285,38.552-15.254c-3.878-1.553-7.863-2.82-11.928-3.791l-2.589,3.695
			c-1.222,1.785-3.295,2.794-5.453,2.651c-4.068,0-7.859-0.827-7.859-2.496c0.124-0.768,0.483-1.479,1.027-2.032
			c4.161-5.363,7.672-10.169,10.724-14.886H13.317c-3.86-0.021-7.722,0.194-11.558,0.646l-0.832-3.146
			c4.114,0.444,8.249,0.661,12.388,0.647H27.09c2.219-3.421,4.16-6.842,6.01-10.273c0.689-1.29,1.308-2.616,1.852-3.977H21.272
			v0.373c0,3.883-2.312,5.083-7.213,5.083c-2.958,0-3.596-0.555-3.596-3.236c0-1.107,0.37-6.843,0.37-11.466
			c0-4.99,0-9.246-0.277-12.942c9.706,2.312,12.202,3.051,12.757,4.253h6.103v-9.991H16.831c-4.726-0.046-9.445,0.169-14.146,0.647
			l-0.832-3.139c4.979,0.473,9.979,0.689,14.979,0.647h53.347c6.38-7.582,6.564-7.675,7.489-7.675s1.202,0.093,5.648,4.068
			c3.598,3.236,3.886,3.596,3.886,4.438c0.084,0.483-0.24,0.943-0.727,1.027c-0.1,0.017-0.203,0.017-0.303,0H59.461
			c-0.093,0.462-0.739,0.922-1.387,1.387v8.615h7.212c4.808-5.181,5.086-5.363,5.905-5.363c0.927,0,1.479,0.182,5.907,3.596
			c3.236,2.497,3.422,2.774,3.422,3.698c0,0.83-0.186,1.11-2.682,3.144v1.941c0,4.529,0.462,10.271,0.462,11.186
			c0,2.589-2.219,4.251-7.582,4.251c-3.791,0-4.438-0.737-4.438-3.339v-1.202H37.635c9.246,2.496,10.815,3.596,10.815,4.993
			c0,1.202-1.027,1.94-4.438,2.956c-1.202,1.939-2.496,4.067-3.883,6.287L69.618,426.172z M21.266,410.083H29.4v-14.236h-6.562
			c-0.491,0.467-1.019,0.896-1.572,1.284L21.266,410.083z M38.925,428.019c-2.496,3.696-5.083,7.674-7.764,11.465
			c5.27,0.186,10.073,0.558,14.514,1.025c1.604-2.124,2.967-4.419,4.065-6.842c0.854-1.836,1.597-3.724,2.22-5.65L38.925,428.019z
			 M39.571,393.998h8.139v-9.986h-6.75c-0.092,0.37-0.739,0.83-1.389,1.285V393.998z M47.709,410.083v-14.236H39.57v14.236H47.709z
			 M58.061,395.847v14.236h8.219v-14.236H58.061z"/>
		<path fill="#1393A0" d="M22.098,543.043c4.9-0.832,9.706-1.664,14.329-2.682c0.555-0.094,0.925,0.738,0.462,1.025
			c-8.84,5.769-18.009,11.015-27.459,15.714c-0.369,3.236-1.202,3.978-2.034,3.978c-1.479,0-2.496-0.832-7.212-15.438
			c1.976,0.053,3.947-0.042,5.907-0.275l5.363-0.74v-22.835c-3.062,0.021-6.118,0.237-9.151,0.646l-0.832-3.144
			c3.314,0.393,6.648,0.608,9.985,0.646v-14.974c0-2.772,0-5.907-0.277-8.507c-3.216-0.002-6.429,0.215-9.616,0.646l-0.819-3.152
			c3.557,0.44,7.139,0.658,10.723,0.646h9.438c5.18-6.563,5.362-6.655,6.012-6.655c0.646,0,1.025,0.185,4.809,4.158
			c2.496,2.591,2.773,2.867,2.773,3.423c-0.016,0.524-0.452,0.939-0.979,0.928c-0.017,0-0.033-0.001-0.05-0.003h-9.246
			c0,0.83-0.646,1.478-2.127,2.125v21.354c4.253-5.906,4.438-6.103,5.083-6.103c0.739,0,1.027,0.093,3.884,3.339
			c2.683,2.959,2.866,3.34,2.866,3.791c0,0.556-0.37,0.833-1.027,0.833H22.098V543.043L22.098,543.043z M72.299,566.711
			c5.825-7.582,6.101-7.767,6.843-7.767s1.284,0.185,5.825,4.253c3.514,3.144,3.883,3.596,3.883,4.438
			c0.055,0.456-0.271,0.87-0.728,0.925c-0.065,0.01-0.132,0.01-0.196,0H32.36c-2.127,0-6.101,0.187-10.444,0.646l-0.924-3.146
			c4.528,0.464,8.689,0.647,11.368,0.647h19.972v-16.921H43.92c-3.124-0.036-6.246,0.181-9.336,0.646l-0.832-3.144
			c3.375,0.396,6.77,0.614,10.168,0.646h8.414v-17.011h-6.657v1.941c0,3.596-1.941,4.808-6.38,4.808
			c-3.421,0-4.253-0.555-4.253-3.421c0-1.479,0.462-12.021,0.462-28.478c0-8.967-0.093-12.388-0.462-17.843
			c8.689,1.941,11.463,2.773,12.297,3.698h21.727c4.065-4.346,4.438-4.531,5.271-4.531c1.025,0,1.479,0.185,6.1,3.885
			c3.598,2.955,3.884,3.235,3.884,4.157c0,0.832-0.368,1.205-2.959,3.421v10.911c0,11.093,0.557,20.247,0.557,22.281
			c0,2.682-1.941,4.438-7.582,4.438c-3.236,0-3.978-0.556-3.978-3.422v-1.849h-7.12v17.01h6.104
			c5.456-6.935,6.011-7.484,6.843-7.484c0.739,0,1.572,0.462,5.65,4.251c3.339,3.051,3.514,3.596,3.514,4.253
			c0,0.655-0.37,0.83-0.925,0.83H63.241v16.92L72.299,566.711z M47.337,493.488c-0.459,0.564-1.024,1.038-1.665,1.387v15.9h6.658
			v-12.667c0-1.941-0.095-3.341-0.188-4.623L47.337,493.488z M52.33,529.081v-16.456h-6.655v16.456H52.33z M63.236,510.776h7.12
			v-17.288h-5.455c-0.093,0.555-0.555,1.201-1.665,1.849V510.776z M70.356,529.081v-16.456h-7.12v16.456H70.356z"/>
		<path fill="#1393A0" d="M66.108,619.605c4.9-5.271,5.271-5.55,6.102-5.55s1.85,0.559,6.288,3.978
			c3.051,2.406,3.791,3.235,3.791,3.976s-0.463,1.479-2.774,3.053v16.642c0,19.692,0.555,33.747,0.555,36.147
			c0,2.772-2.589,4.622-7.962,4.622c-4.161,0-4.713-0.646-4.713-3.419v-4.253H20.16v4.253c0,2.681-2.221,4.438-7.964,4.438
			c-3.339,0-3.976-0.465-3.976-3.421c0-2.497,0.647-19.521,0.647-39.758c0-13.96-0.095-19.968-0.465-24.964
			c9.986,2.034,13.037,3.236,13.87,4.255h15.068v-0.276c0-10.076-0.093-16.183-0.37-21.262c14.422,1.201,15.624,1.757,15.624,3.339
			c0,0.922-0.925,1.567-3.144,2.771v15.441L66.108,619.605z M37.354,621.454H22.188c-0.56,0.574-1.262,0.989-2.034,1.202v21.911
			h17.208L37.354,621.454z M20.157,672.938h17.209v-26.521H20.157V672.938z M49.466,621.441v23.114h17.928v-23.114H49.466z
			 M67.392,672.938v-26.521H49.462v26.521H67.392z"/>
		<path fill="#1393A0" d="M37.631,745.625c0,19.045,0.646,30.973,0.646,33.281c0,2.866-2.312,4.161-7.023,4.161
			c-3.421,0-4.068-0.463-4.068-3.598v-4.531H14.887v8.875c0,2.865-2.312,4.16-6.473,4.16c-3.421,0-4.161-0.373-4.161-3.596
			c0-2.497,0.74-19.521,0.74-30.785c0-14.235,0.092-20.895-0.37-28.012c4.063,1.109,6.842,1.942,8.688,2.589
			c0.463-4.623,0.832-8.137,1.109-12.944c0.093-1.66,0.093-2.955,0.093-5.545c12.48,2.496,14.329,3.053,14.329,4.717
			c0,0.922-0.739,1.94-3.596,2.771c-2.959,4.531-5.65,8.322-8.781,12.479h9.983c3.791-4.622,4.159-4.897,4.898-4.897
			c1.027,0,1.387,0.093,4.993,3.236c3.791,3.234,4.068,3.694,4.068,4.528c0,0.836-0.187,1.027-2.773,3.054L37.631,745.625z
			 M16.826,731.48c-0.187,0.462-0.739,0.827-1.941,1.477v18.123h12.295v-19.582L16.826,731.48z M27.178,773.089v-20.154H14.886
			v20.154H27.178z M71.927,727.787c4.623-5.545,4.9-5.73,5.907-5.73c1.107,0,1.57,0.188,6.657,4.346
			c2.682,2.219,2.959,2.589,2.959,3.596c0,0.922-0.37,1.284-2.959,3.421c0.093,25.699-0.557,40.581-2.312,48.258
			c-2.034,8.972-7.489,12.668-15.996,12.668c-1.939,0-2.404-0.463-2.866-2.22c-1.387-4.99-3.976-7.579-10.911-9.429
			c-0.555-0.187-0.555-1.027,0-1.027c4.438,0.249,8.883,0.249,13.315,0c2.959-0.185,4.9-1.479,5.65-7.304
			c0.925-7.117,1.939-18.953,1.757-44.747H54.27c-4.05,6.463-9,12.314-14.702,17.383c-0.462,0.37-1.025-0.275-0.737-0.74
			c3.884-5.905,7.962-19.774,10.076-31.984c0.367-2.407,0.646-3.794,0.83-6.288c14.701,3.698,15.441,4.53,15.441,5.907
			c0,1.025-0.74,1.664-3.884,2.589c-1.713,3.89-3.688,7.656-5.907,11.279L71.927,727.787z M52.33,760.239
			c-0.37-7.212-1.284-11.928-5.363-15.352c-0.462-0.367-0.093-0.922,0.462-0.832c12.11,1.665,17.565,8.322,17.565,15.069
			c0,5.271-3.146,7.962-7.212,7.962C54.552,767.079,52.606,765.045,52.33,760.239L52.33,760.239z"/>
		<path fill="#1393A0" d="M76.922,841.887c-6.383-0.05-11.519-5.265-11.467-11.646c0.049-6.383,5.264-11.52,11.646-11.468
			c6.35,0.05,11.468,5.209,11.468,11.558c0.115,6.269-4.873,11.443-11.142,11.56C77.26,841.892,77.091,841.891,76.922,841.887
			L76.922,841.887z M76.922,821.92c-4.646,0-8.411,3.768-8.411,8.411s3.766,8.412,8.411,8.412c4.645,0,8.412-3.769,8.412-8.412l0,0
			c0.054-4.599-3.63-8.37-8.229-8.424c-0.061-0.001-0.122-0.001-0.184,0L76.922,821.92L76.922,821.92z"/>
	</g>
</g>
</svg>
